<svg width="512" height="422" viewBox="0 0 512 422" fill="none" xmlns="http://www.w3.org/2000/svg">
<g clip-path="url(#clip0_76_575)">
<g filter="url(#filter0_b_76_575)">
<rect x="231.898" y="257.665" width="261.959" height="165.335" rx="14.1323" fill="white" fill-opacity="0.2"/>
<rect x="457.898" y="325.533" width="8.00001" height="72" rx="4" transform="rotate(90 457.898 325.533)" fill="#95ABBC"/>
<rect x="453.898" y="347.665" width="8.00001" height="68" rx="4" transform="rotate(90 453.898 347.665)" fill="#95ABBC"/>
<rect x="461.898" y="369.797" width="8.00001" height="76" rx="4" transform="rotate(90 461.898 369.797)" fill="#95ABBC"/>
<g clip-path="url(#clip1_76_575)">
<path d="M346.544 351.295C346.544 373.346 328.712 391.197 306.746 391.197C284.78 391.197 266.948 373.346 266.948 351.295C266.948 329.243 284.78 311.393 306.746 311.393C328.712 311.393 346.544 329.243 346.544 351.295Z" stroke="#0A2640" stroke-width="13.3928"/>
<mask id="mask0_76_575" style="mask-type:alpha" maskUnits="userSpaceOnUse" x="232" y="287" width="74" height="122">
<path d="M305.263 346.998L287.127 287.841L232.223 357.573L261.406 408.468L305.263 346.998Z" fill="#C4C4C4"/>
</mask>
<g mask="url(#mask0_76_575)">
<path d="M346.545 351.294C346.545 373.345 328.713 391.196 306.747 391.196C284.781 391.196 266.949 373.345 266.949 351.294C266.949 329.243 284.781 311.392 306.747 311.392C328.713 311.392 346.545 329.243 346.545 351.294Z" stroke="#0DBBFC" stroke-width="13.3928"/>
</g>
<mask id="mask1_76_575" style="mask-type:alpha" maskUnits="userSpaceOnUse" x="281" y="282" width="91" height="85">
<path d="M311.402 352.182L371.398 366.873L339.693 283.913L281.13 282.96L311.402 352.182Z" fill="#C4C4C4"/>
</mask>
<g mask="url(#mask1_76_575)">
<path d="M286.347 385.535C267.454 374.249 261.254 349.763 272.501 330.842C283.747 311.92 308.179 305.732 327.072 317.018C345.964 328.303 352.164 352.79 340.918 371.711C329.671 390.632 305.239 396.82 286.347 385.535Z" stroke="#69E6A6" stroke-width="13.3928"/>
</g>
</g>
</g>
<ellipse cx="262.087" cy="274.35" rx="4.97633" ry="4.98819" fill="#FC5B00"/>
<ellipse cx="281.992" cy="274.35" rx="4.97633" ry="4.98819" fill="#ECAA00"/>
<ellipse cx="301.897" cy="274.35" rx="4.97633" ry="4.98819" fill="#009D10"/>
<g filter="url(#filter1_b_76_575)">
<g clip-path="url(#clip2_76_575)">
<rect width="493.858" height="231.898" rx="15.0305" fill="white" fill-opacity="0.18"/>
<rect x="82.7802" y="68.1805" width="11.7769" height="54.1739" rx="5.88847" transform="rotate(90 82.7802 68.1805)" fill="#95ABBC"/>
<rect x="367.065" y="68.1091" width="11.9197" height="269.981" rx="5.95985" transform="rotate(90 367.065 68.1091)" fill="#8FB6D5"/>
<path d="M384.767 70.3059C385.543 70.3059 386.158 70.4863 386.612 70.8472C387.066 71.208 387.293 71.7066 387.293 72.343C387.293 72.762 387.163 73.1442 386.903 73.4896C386.643 73.8349 386.228 74.1492 385.658 74.4324C386.348 74.7622 386.839 75.1095 387.13 75.4742C387.421 75.8351 387.567 76.2541 387.567 76.7314C387.567 77.4376 387.32 78.0021 386.828 78.425C386.335 78.8441 385.66 79.0536 384.802 79.0536C383.894 79.0536 383.196 78.8557 382.707 78.46C382.218 78.0603 381.974 77.4958 381.974 76.7663C381.974 75.7924 382.567 75.0338 383.754 74.4906C383.219 74.188 382.835 73.862 382.602 73.5128C382.369 73.1597 382.253 72.7659 382.253 72.3313C382.253 71.7144 382.48 71.2236 382.934 70.8588C383.392 70.4902 384.003 70.3059 384.767 70.3059ZM382.928 76.7896C382.928 77.2552 383.089 77.618 383.411 77.8779C383.737 78.1379 384.193 78.2679 384.779 78.2679C385.357 78.2679 385.807 78.1321 386.129 77.8605C386.451 77.5889 386.612 77.2164 386.612 76.743C386.612 76.3666 386.461 76.033 386.158 75.742C385.856 75.4471 385.328 75.1619 384.575 74.8864C383.997 75.1347 383.578 75.4102 383.318 75.7129C383.058 76.0116 382.928 76.3705 382.928 76.7896ZM384.756 71.0916C384.271 71.0916 383.89 71.208 383.615 71.4409C383.339 71.6737 383.202 71.9841 383.202 72.3721C383.202 72.729 383.316 73.0356 383.545 73.2917C383.774 73.5478 384.197 73.8038 384.814 74.0599C385.369 73.8271 385.761 73.5769 385.989 73.3091C386.222 73.0414 386.339 72.729 386.339 72.3721C386.339 71.9802 386.197 71.6698 385.914 71.4409C385.634 71.208 385.248 71.0916 384.756 71.0916ZM394.411 74.671C394.411 76.1416 394.178 77.2397 393.713 77.9653C393.251 78.6908 392.543 79.0536 391.588 79.0536C390.673 79.0536 389.976 78.6831 389.499 77.942C389.022 77.197 388.783 76.1067 388.783 74.671C388.783 73.1888 389.014 72.0888 389.476 71.371C389.937 70.6532 390.642 70.2943 391.588 70.2943C392.512 70.2943 393.212 70.6687 393.689 71.4176C394.171 72.1664 394.411 73.2509 394.411 74.671ZM389.761 74.671C389.761 75.9088 389.906 76.8109 390.197 77.3774C390.488 77.94 390.952 78.2213 391.588 78.2213C392.233 78.2213 392.698 77.9362 392.985 77.3658C393.276 76.7915 393.422 75.8933 393.422 74.671C393.422 73.4488 393.276 72.5544 392.985 71.9879C392.698 71.4176 392.233 71.1324 391.588 71.1324C390.952 71.1324 390.488 71.4137 390.197 71.9763C389.906 72.535 389.761 73.4333 389.761 74.671ZM396.419 72.9657C396.419 73.6254 396.491 74.1201 396.634 74.4499C396.778 74.7797 397.011 74.9446 397.333 74.9446C397.969 74.9446 398.287 74.285 398.287 72.9657C398.287 71.6543 397.969 70.9985 397.333 70.9985C397.011 70.9985 396.778 71.1615 396.634 71.4874C396.491 71.8133 396.419 72.3061 396.419 72.9657ZM399.085 72.9657C399.085 73.8504 398.935 74.5197 398.637 74.9737C398.342 75.4238 397.907 75.6488 397.333 75.6488C396.79 75.6488 396.367 75.418 396.064 74.9562C395.765 74.4945 395.616 73.831 395.616 72.9657C395.616 72.085 395.76 71.4215 396.047 70.9752C396.338 70.529 396.766 70.3059 397.333 70.3059C397.896 70.3059 398.328 70.5368 398.631 70.9985C398.933 71.4603 399.085 72.116 399.085 72.9657ZM401.541 76.3763C401.541 77.0398 401.613 77.5365 401.756 77.8663C401.9 78.1922 402.135 78.3552 402.46 78.3552C402.786 78.3552 403.027 78.1942 403.182 77.8721C403.337 77.5462 403.415 77.0476 403.415 76.3763C403.415 75.7129 403.337 75.222 403.182 74.9038C403.027 74.5818 402.786 74.4208 402.46 74.4208C402.135 74.4208 401.9 74.5818 401.756 74.9038C401.613 75.222 401.541 75.7129 401.541 76.3763ZM404.212 76.3763C404.212 77.2571 404.063 77.9245 403.764 78.3785C403.469 78.8286 403.035 79.0536 402.46 79.0536C401.91 79.0536 401.485 78.8228 401.186 78.361C400.891 77.8993 400.744 77.2377 400.744 76.3763C400.744 75.4956 400.887 74.8321 401.174 74.3859C401.465 73.9396 401.894 73.7165 402.46 73.7165C403.011 73.7165 403.44 73.9455 403.747 74.4033C404.057 74.8573 404.212 75.515 404.212 76.3763ZM402.711 70.4281L397.991 78.9372H397.135L401.855 70.4281H402.711Z" fill="white"/>
<rect x="82.7802" y="107.217" width="11.7769" height="54.1739" rx="5.88847" transform="rotate(90 82.7802 107.217)" fill="#95ABBC"/>
<rect x="176.946" y="107.444" width="11.3237" height="79.8619" rx="5.66185" transform="rotate(90 176.946 107.444)" fill="#0DBBFC"/>
<path d="M197.104 110.765C197.104 111.308 196.951 111.753 196.645 112.098C196.342 112.443 195.911 112.674 195.353 112.791V112.837C196.035 112.923 196.542 113.14 196.872 113.489C197.201 113.838 197.366 114.296 197.366 114.863C197.366 115.674 197.085 116.298 196.522 116.737C195.96 117.171 195.16 117.389 194.124 117.389C193.674 117.389 193.261 117.354 192.885 117.284C192.512 117.218 192.15 117.099 191.796 116.929V116.009C192.165 116.192 192.557 116.331 192.972 116.428C193.391 116.521 193.787 116.568 194.159 116.568C195.63 116.568 196.365 115.992 196.365 114.839C196.365 113.807 195.554 113.291 193.932 113.291H193.094V112.459H193.944C194.608 112.459 195.133 112.313 195.521 112.022C195.909 111.727 196.103 111.32 196.103 110.8C196.103 110.385 195.96 110.059 195.673 109.822C195.389 109.586 195.003 109.467 194.514 109.467C194.142 109.467 193.791 109.518 193.461 109.619C193.131 109.72 192.755 109.906 192.332 110.177L191.843 109.526C192.192 109.25 192.594 109.035 193.048 108.879C193.506 108.72 193.987 108.641 194.491 108.641C195.318 108.641 195.96 108.831 196.418 109.211C196.875 109.588 197.104 110.106 197.104 110.765ZM204.292 113.006C204.292 114.477 204.059 115.575 203.594 116.3C203.132 117.026 202.424 117.389 201.47 117.389C200.554 117.389 199.857 117.018 199.38 116.277C198.903 115.532 198.664 114.442 198.664 113.006C198.664 111.524 198.895 110.424 199.357 109.706C199.819 108.988 200.523 108.629 201.47 108.629C202.393 108.629 203.093 109.004 203.571 109.753C204.052 110.501 204.292 111.586 204.292 113.006ZM199.642 113.006C199.642 114.244 199.787 115.146 200.079 115.712C200.37 116.275 200.833 116.556 201.47 116.556C202.114 116.556 202.579 116.271 202.866 115.701C203.157 115.126 203.303 114.228 203.303 113.006C203.303 111.784 203.157 110.889 202.866 110.323C202.579 109.753 202.114 109.467 201.47 109.467C200.833 109.467 200.37 109.749 200.079 110.311C199.787 110.87 199.642 111.768 199.642 113.006ZM206.3 111.301C206.3 111.96 206.372 112.455 206.516 112.785C206.659 113.115 206.892 113.28 207.214 113.28C207.85 113.28 208.169 112.62 208.169 111.301C208.169 109.989 207.85 109.333 207.214 109.333C206.892 109.333 206.659 109.496 206.516 109.822C206.372 110.148 206.3 110.641 206.3 111.301ZM208.966 111.301C208.966 112.185 208.817 112.855 208.518 113.309C208.223 113.759 207.788 113.984 207.214 113.984C206.671 113.984 206.248 113.753 205.945 113.291C205.646 112.829 205.497 112.166 205.497 111.301C205.497 110.42 205.641 109.756 205.928 109.31C206.219 108.864 206.648 108.641 207.214 108.641C207.777 108.641 208.209 108.872 208.512 109.333C208.815 109.795 208.966 110.451 208.966 111.301ZM211.422 114.711C211.422 115.375 211.494 115.871 211.637 116.201C211.781 116.527 212.016 116.69 212.342 116.69C212.668 116.69 212.908 116.529 213.063 116.207C213.218 115.881 213.296 115.383 213.296 114.711C213.296 114.048 213.218 113.557 213.063 113.239C212.908 112.917 212.668 112.756 212.342 112.756C212.016 112.756 211.781 112.917 211.637 113.239C211.494 113.557 211.422 114.048 211.422 114.711ZM214.093 114.711C214.093 115.592 213.944 116.259 213.645 116.713C213.35 117.164 212.916 117.389 212.342 117.389C211.791 117.389 211.366 117.158 211.067 116.696C210.772 116.234 210.625 115.573 210.625 114.711C210.625 113.831 210.768 113.167 211.055 112.721C211.346 112.275 211.775 112.051 212.342 112.051C212.893 112.051 213.321 112.28 213.628 112.738C213.938 113.192 214.093 113.85 214.093 114.711ZM212.592 108.763L207.872 117.272H207.016L211.736 108.763H212.592Z" fill="white"/>
<rect x="82.7802" y="145.956" width="11.7769" height="54.1739" rx="5.88847" transform="rotate(90 82.7802 145.956)" fill="#95ABBC"/>
<rect x="414.743" y="145.885" width="11.9197" height="317.66" rx="5.95985" transform="rotate(90 414.743 145.885)" fill="white"/>
<path d="M433.208 156.011H432.266V149.947C432.266 149.442 432.281 148.965 432.312 148.515C432.231 148.596 432.139 148.682 432.039 148.771C431.938 148.86 431.476 149.238 430.653 149.906L430.141 149.242L432.394 147.502H433.208V156.011ZM442.09 151.745C442.09 153.216 441.857 154.314 441.392 155.039C440.93 155.765 440.222 156.128 439.267 156.128C438.351 156.128 437.655 155.757 437.178 155.016C436.701 154.271 436.462 153.181 436.462 151.745C436.462 150.263 436.693 149.163 437.154 148.445C437.616 147.727 438.32 147.368 439.267 147.368C440.191 147.368 440.891 147.743 441.368 148.491C441.849 149.24 442.09 150.325 442.09 151.745ZM437.44 151.745C437.44 152.983 437.585 153.885 437.876 154.451C438.167 155.014 438.631 155.295 439.267 155.295C439.911 155.295 440.377 155.01 440.664 154.44C440.955 153.865 441.101 152.967 441.101 151.745C441.101 150.523 440.955 149.628 440.664 149.062C440.377 148.491 439.911 148.206 439.267 148.206C438.631 148.206 438.167 148.488 437.876 149.05C437.585 149.609 437.44 150.507 437.44 151.745ZM448.911 151.745C448.911 153.216 448.678 154.314 448.213 155.039C447.751 155.765 447.043 156.128 446.088 156.128C445.173 156.128 444.476 155.757 443.999 155.016C443.522 154.271 443.283 153.181 443.283 151.745C443.283 150.263 443.514 149.163 443.976 148.445C444.437 147.727 445.142 147.368 446.088 147.368C447.012 147.368 447.712 147.743 448.189 148.491C448.671 149.24 448.911 150.325 448.911 151.745ZM444.261 151.745C444.261 152.983 444.406 153.885 444.697 154.451C444.988 155.014 445.452 155.295 446.088 155.295C446.733 155.295 447.198 155.01 447.485 154.44C447.776 153.865 447.922 152.967 447.922 151.745C447.922 150.523 447.776 149.628 447.485 149.062C447.198 148.491 446.733 148.206 446.088 148.206C445.452 148.206 444.988 148.488 444.697 149.05C444.406 149.609 444.261 150.507 444.261 151.745ZM450.919 150.04C450.919 150.699 450.991 151.194 451.134 151.524C451.278 151.854 451.511 152.019 451.833 152.019C452.469 152.019 452.787 151.359 452.787 150.04C452.787 148.728 452.469 148.072 451.833 148.072C451.511 148.072 451.278 148.235 451.134 148.561C450.991 148.887 450.919 149.38 450.919 150.04ZM453.585 150.04C453.585 150.924 453.435 151.594 453.137 152.048C452.842 152.498 452.407 152.723 451.833 152.723C451.29 152.723 450.867 152.492 450.564 152.03C450.265 151.568 450.116 150.905 450.116 150.04C450.116 149.159 450.26 148.495 450.547 148.049C450.838 147.603 451.266 147.38 451.833 147.38C452.396 147.38 452.828 147.611 453.131 148.072C453.433 148.534 453.585 149.19 453.585 150.04ZM456.041 153.45C456.041 154.114 456.113 154.61 456.256 154.94C456.4 155.266 456.635 155.429 456.96 155.429C457.286 155.429 457.527 155.268 457.682 154.946C457.837 154.62 457.915 154.122 457.915 153.45C457.915 152.787 457.837 152.296 457.682 151.978C457.527 151.656 457.286 151.495 456.96 151.495C456.635 151.495 456.4 151.656 456.256 151.978C456.113 152.296 456.041 152.787 456.041 153.45ZM458.712 153.45C458.712 154.331 458.563 154.998 458.264 155.452C457.969 155.902 457.535 156.128 456.96 156.128C456.409 156.128 455.985 155.897 455.686 155.435C455.391 154.973 455.244 154.312 455.244 153.45C455.244 152.569 455.387 151.906 455.674 151.46C455.965 151.014 456.394 150.79 456.96 150.79C457.511 150.79 457.94 151.019 458.247 151.477C458.557 151.931 458.712 152.589 458.712 153.45ZM457.211 147.502L452.491 156.011H451.635L456.355 147.502H457.211Z" fill="white"/>
<rect x="82.7802" y="184.695" width="11.7769" height="54.1739" rx="5.88847" transform="rotate(90 82.7802 184.695)" fill="#95ABBC"/>
<rect x="350.973" y="184.922" width="11.3237" height="253.889" rx="5.66186" transform="rotate(90 350.973 184.922)" fill="#65E4A3"/>
<path d="M366.935 194.75L370.462 187.132H365.824V186.241H371.487V187.015L368.006 194.75H366.935ZM375.34 189.553C376.236 189.553 376.94 189.776 377.452 190.222C377.968 190.664 378.227 191.272 378.227 192.044C378.227 192.925 377.945 193.615 377.383 194.116C376.824 194.616 376.052 194.867 375.066 194.867C374.108 194.867 373.376 194.713 372.872 194.407V193.475C373.144 193.65 373.481 193.788 373.885 193.889C374.288 193.986 374.686 194.034 375.078 194.034C375.761 194.034 376.29 193.873 376.667 193.551C377.047 193.229 377.237 192.763 377.237 192.154C377.237 190.967 376.51 190.373 375.055 190.373C374.686 190.373 374.193 190.43 373.576 190.542L373.076 190.222L373.396 186.241H377.627V187.132H374.222L374.007 189.687C374.453 189.597 374.897 189.553 375.34 189.553ZM380.328 188.779C380.328 189.438 380.399 189.933 380.543 190.263C380.687 190.593 380.919 190.757 381.241 190.757C381.878 190.757 382.196 190.098 382.196 188.779C382.196 187.467 381.878 186.811 381.241 186.811C380.919 186.811 380.687 186.974 380.543 187.3C380.399 187.626 380.328 188.119 380.328 188.779ZM382.993 188.779C382.993 189.663 382.844 190.333 382.545 190.787C382.25 191.237 381.816 191.462 381.241 191.462C380.698 191.462 380.275 191.231 379.973 190.769C379.674 190.307 379.524 189.644 379.524 188.779C379.524 187.898 379.668 187.234 379.955 186.788C380.246 186.342 380.675 186.119 381.241 186.119C381.804 186.119 382.237 186.35 382.539 186.811C382.842 187.273 382.993 187.929 382.993 188.779ZM385.449 192.189C385.449 192.853 385.521 193.349 385.665 193.679C385.808 194.005 386.043 194.168 386.369 194.168C386.695 194.168 386.935 194.007 387.091 193.685C387.246 193.359 387.323 192.86 387.323 192.189C387.323 191.526 387.246 191.035 387.091 190.717C386.935 190.395 386.695 190.234 386.369 190.234C386.043 190.234 385.808 190.395 385.665 190.717C385.521 191.035 385.449 191.526 385.449 192.189ZM388.121 192.189C388.121 193.07 387.971 193.737 387.673 194.191C387.378 194.641 386.943 194.867 386.369 194.867C385.818 194.867 385.393 194.636 385.094 194.174C384.799 193.712 384.652 193.051 384.652 192.189C384.652 191.308 384.796 190.645 385.083 190.199C385.374 189.753 385.802 189.529 386.369 189.529C386.92 189.529 387.349 189.758 387.655 190.216C387.966 190.67 388.121 191.328 388.121 192.189ZM386.619 186.241L381.899 194.75H381.043L385.764 186.241H386.619Z" fill="white"/>
<circle cx="18.8431" cy="18.8431" r="4.71077" fill="#FC5B00"/>
<circle cx="37.6861" cy="18.8431" r="4.71077" fill="#ECAA00"/>
<circle cx="56.5293" cy="18.8431" r="4.71077" fill="#009D10"/>
</g>
</g>
<g filter="url(#filter2_b_76_575)">
<rect x="1.07361" y="257.665" width="192.175" height="165.335" rx="15.0305" fill="white" fill-opacity="0.18"/>
</g>
<ellipse cx="22.7783" cy="274.949" rx="4.89338" ry="4.7466" fill="#FC5B00"/>
<ellipse cx="42.3519" cy="274.949" rx="4.89338" ry="4.7466" fill="#ECAA00"/>
<ellipse cx="61.9254" cy="274.949" rx="4.89338" ry="4.7466" fill="#009D10"/>
<rect width="9.64638" height="23.2118" rx="4.82319" transform="matrix(1 0 0 -1 26.713 401.576)" fill="#0DBBFC"/>
<rect width="9.64638" height="13.4523" rx="4.82319" transform="matrix(1 0 0 -1 46.0058 391.817)" fill="#0DBBFC"/>
<rect x="65.2985" y="316.115" width="9.64638" height="62.2498" rx="4.82319" fill="#0DBBFC"/>
<rect x="84.5913" y="335.37" width="9.64638" height="42.9945" rx="4.82319" fill="#0DBBFC"/>
<rect x="103.884" y="295.541" width="9.64639" height="82.8238" rx="4.82319" fill="#95ABBC"/>
<rect x="123.177" y="319.808" width="9.64638" height="58.5569" rx="4.82319" fill="#0DBBFC"/>
<rect x="142.47" y="308.465" width="9.64636" height="69.8991" rx="4.82318" fill="#0DBBFC"/>
<rect x="161.762" y="346.448" width="9.64638" height="31.9162" rx="4.82319" fill="#0DBBFC"/>
</g>
<defs>
<filter id="filter0_b_76_575" x="98.7715" y="124.538" width="528.213" height="431.589" filterUnits="userSpaceOnUse" color-interpolation-filters="sRGB">
<feFlood flood-opacity="0" result="BackgroundImageFix"/>
<feGaussianBlur in="BackgroundImage" stdDeviation="66.5635"/>
<feComposite in2="SourceAlpha" operator="in" result="effect1_backgroundBlur_76_575"/>
<feBlend mode="normal" in="SourceGraphic" in2="effect1_backgroundBlur_76_575" result="shape"/>
</filter>
<filter id="filter1_b_76_575" x="-68.7107" y="-68.7107" width="631.279" height="369.32" filterUnits="userSpaceOnUse" color-interpolation-filters="sRGB">
<feFlood flood-opacity="0" result="BackgroundImageFix"/>
<feGaussianBlur in="BackgroundImage" stdDeviation="34.3553"/>
<feComposite in2="SourceAlpha" operator="in" result="effect1_backgroundBlur_76_575"/>
<feBlend mode="normal" in="SourceGraphic" in2="effect1_backgroundBlur_76_575" result="shape"/>
</filter>
<filter id="filter2_b_76_575" x="-67.6371" y="188.954" width="329.596" height="302.756" filterUnits="userSpaceOnUse" color-interpolation-filters="sRGB">
<feFlood flood-opacity="0" result="BackgroundImageFix"/>
<feGaussianBlur in="BackgroundImage" stdDeviation="34.3553"/>
<feComposite in2="SourceAlpha" operator="in" result="effect1_backgroundBlur_76_575"/>
<feBlend mode="normal" in="SourceGraphic" in2="effect1_backgroundBlur_76_575" result="shape"/>
</filter>
<clipPath id="clip0_76_575">
<rect width="512" height="422" fill="white"/>
</clipPath>
<clipPath id="clip1_76_575">
<rect width="93.0378" height="93.0378" fill="white" transform="translate(260.163 304.773)"/>
</clipPath>
<clipPath id="clip2_76_575">
<rect width="493.858" height="231.898" rx="15.0305" fill="white"/>
</clipPath>
</defs>
</svg>
